<?xml version="1.0" encoding="UTF-8"?>
<svg id="Laag_1" data-name="Laag 1" xmlns="http://www.w3.org/2000/svg" viewBox="0 0 107.02 31.91">
  <defs>
    <style>
      .cls-1 {
        fill: #fff;
        font-family: CascadiaCode-Regular, 'Cascadia Code';
        font-size: 24px;
      }

      .cls-2 {
        fill: #ed1c24;
      }

      .cls-3 {
        fill: #c1272d;
      }

      .cls-4 {
        fill: #731c24;
      }
    </style>
  </defs>
  <text class="cls-1" transform="translate(0 20.32)"><tspan x="0" y="0">GAMEL</tspan></text>
  <text class="cls-1" transform="translate(78.89 20.32)"><tspan x="0" y="0">NK</tspan></text>
  <g>
    <path class="cls-3" d="M73.32,3.35c.17,1.08.57,2.71,1.59,4.47,1.15,2,2.59,3.3,3.53,4.02-3.41,0-6.82,0-10.23,0,.91-.73,2.25-1.97,3.37-3.85,1.1-1.83,1.54-3.53,1.74-4.64Z"/>
    <path class="cls-3" d="M73.31,20.32c-.18-1.08-.58-2.71-1.59-4.47-1.16-2.03-2.61-3.32-3.53-4.02,1.71,0,3.42,0,5.13,0,0,2.83,0,5.66,0,8.49Z"/>
    <path class="cls-2" d="M73.3,11.84c-1.7,0-3.41,0-5.11,0,.67-.53,1.58-1.35,2.47-2.52.17-.22.53-.71.9-1.33.54-.91,1.31-2.45,1.74-4.64,0,2.83,0,5.66,0,8.49Z"/>
    <path class="cls-4" d="M73.33,20.32c.18-1.08.58-2.71,1.59-4.47,1.16-2.03,2.61-3.32,3.53-4.02-1.71,0-3.42,0-5.13,0,0,2.83,0,5.66,0,8.49Z"/>
  </g>
</svg>