<?xml version="1.0" encoding="UTF-8"?>
<svg id="Laag_2" data-name="Laag 2" xmlns="http://www.w3.org/2000/svg" viewBox="0 0 107.02 31.91">
  <defs>
    <style>
      .cls-1 {
        font-family: CascadiaCode-Regular, 'Cascadia Code';
        font-size: 24px;
      }

      .cls-2 {
        fill: #666;
      }

      .cls-3 {
        fill: #333;
      }

      .cls-4 {
        fill: #1a1a1a;
      }
    </style>
  </defs>
  <g id="Laag_1-2" data-name="Laag 1">
    <text class="cls-1" transform="translate(0 20.32)"><tspan x="0" y="0">GAMEL</tspan></text>
    <text class="cls-1" transform="translate(78.89 20.32)"><tspan x="0" y="0">NK</tspan></text>
    <g>
      <path d="M73.35,3.35c.16,1.08.55,2.71,1.55,4.48,1.14,2.01,2.56,3.32,3.49,4.05-3.41-.03-6.82-.06-10.23-.09.92-.72,2.27-1.95,3.41-3.82,1.11-1.82,1.58-3.51,1.79-4.62Z"/>
      <path d="M73.2,20.32c.18-1.08.6-2.7,1.63-4.46,1.17-1.99,2.62-3.27,3.56-3.98-3.41-.03-6.82-.06-10.23-.09.91.74,2.23,2,3.34,3.88,1.08,1.84,1.51,3.54,1.7,4.65Z"/>
      <path class="cls-3" d="M73.19,20.32c-.17-1.08-.56-2.72-1.55-4.48-1.15-2.04-2.58-3.34-3.49-4.05,1.71.02,3.42.03,5.13.05-.03,2.83-.06,5.66-.09,8.49Z"/>
      <path class="cls-2" d="M73.26,11.84c-1.7-.02-3.41-.03-5.11-.05.67-.52,1.59-1.34,2.49-2.5.17-.22.54-.7.91-1.32.55-.91,1.33-2.44,1.79-4.62-.03,2.83-.06,5.66-.09,8.49Z"/>
      <path class="cls-4" d="M73.21,20.32c.19-1.07.61-2.71,1.63-4.46,1.18-2.02,2.64-3.29,3.56-3.98-1.71-.02-3.42-.03-5.13-.05-.02,2.83-.05,5.66-.07,8.49Z"/>
    </g>
  </g>
</svg>