<?xml version="1.0" encoding="UTF-8"?>
<svg id="Laag_2" data-name="Laag 2" xmlns="http://www.w3.org/2000/svg" viewBox="0 0 10.25 16.97">
  <defs>
    <style>
      .cls-1 {
        fill: #ed1c24;
      }

      .cls-2 {
        fill: #c1272d;
      }

      .cls-3 {
        fill: #731c24;
      }
    </style>
  </defs>
  <g id="Laag_1-2" data-name="Laag 1">
    <g>
      <path class="cls-2" d="M5.13,0c.17,1.08.57,2.71,1.59,4.47,1.15,2,2.59,3.3,3.53,4.02-3.41,0-6.82,0-10.23,0,.91-.73,2.25-1.97,3.37-3.85,1.1-1.83,1.54-3.53,1.74-4.64Z"/>
      <path class="cls-2" d="M5.12,16.97c-.18-1.08-.58-2.71-1.59-4.47-1.16-2.03-2.61-3.32-3.53-4.02,1.71,0,3.42,0,5.13,0,0,2.83,0,5.66,0,8.49Z"/>
      <path class="cls-1" d="M5.11,8.49c-1.7,0-3.41,0-5.11,0,.67-.53,1.58-1.35,2.47-2.52.17-.22.53-.71.9-1.33C3.92,3.73,4.69,2.19,5.12,0c0,2.83,0,5.66,0,8.49Z"/>
      <path class="cls-3" d="M5.14,16.97c.18-1.08.58-2.71,1.59-4.47,1.16-2.03,2.61-3.32,3.53-4.02-1.71,0-3.42,0-5.13,0,0,2.83,0,5.66,0,8.49Z"/>
    </g>
  </g>
</svg>